# xmcd
#
# Track frame offsets: 
#        150
#        12441
#        26249
#        41075
#        56336
#        68586
#        82062
#        93423
#        105559
#        117031
#        135028
#        147332
#        159269
#        170587
#        183638
#        195428
#        209208
#        222286
#        238283
#        257306
#        270042
#        284695
#        296739
#        310004
#        323019
#        333931
#        345706
#
# Disc length: 4741 seconds
#
# Revision: 0
# Processed by: cddbd v1.5.2PL0 Copyright (c) Steve Scherf et al.
# Submitted via: ExactAudioCopyFreeDBPlugin 1.0
#
DISCID=8b12831b
DTITLE=Various Artist - VA - Really the Blues - Disc 25
DYEAR=1900
DGENRE=40s
TTITLE0=Blues Taylor - Unlucky Blues
TTITLE1=Tiny Kahn - Tiny's Blues
TTITLE2=Sister Rosetta Tharpe - Were You There When They Crucified Our
TTITLE2=Lord?
TTITLE3=Bill Monroe - Can't You Hear Me Callin'
TTITLE4=Doris Day - I'm Confessin'
TTITLE5=Frantic Faye Thomas - I Lost My Sugar in Salt Lake City
TTITLE6=Dan Pickett - Riding to a Funeral in a V8
TTITLE7=Hank Williams - Honky Tonk Blues
TTITLE8=Goree Carter - Sweet Old Woman Blues
TTITLE9=Aaron Copland - Four Piano Blues (Excerpt)
TTITLE10=Willie Lane - Prowlin' Ground Hog
TTITLE11=Willie Mae Ford Smith - Give Me Wings
TTITLE12=Curley Weaver - Some Rainy Day
TTITLE13=Robert Nighthawk - Six Three O
TTITLE14=Professor Longhair - Her Mind Is Gone
TTITLE15=Jimmy Witherspoon - I'm Just a Country Boy
TTITLE16=Little Walter - I Just Keep Loving Her
TTITLE17=Louis Armstrong - Didn't He Ramble
TTITLE18=Duke Ellington - In a Blue Summer Garden
TTITLE19=Little Walter, Leroy Foster and Muddy Waters - Rollin' and Tumb
TTITLE19=lin' Part 1
TTITLE20=Little Walter, Leroy Foster and Muddy Waters - Rollin' and Tumb
TTITLE20=lin' Part 2
TTITLE21=Anita O'Day - Lovesick Blues
TTITLE22=Al Hibbler - The Blues Came Falling Down
TTITLE23=Helen Humes - Ain't Gonna Quit You Baby
TTITLE24=Bill Haley - Yodel Your Blues Away
TTITLE25=Helen Humes - Sad Feeling
TTITLE26=Metronome All Stars - Band Ain't Draggin'
EXTD=
EXTT0=
EXTT1=
EXTT2=
EXTT3=
EXTT4=
EXTT5=
EXTT6=
EXTT7=
EXTT8=
EXTT9=
EXTT10=
EXTT11=
EXTT12=
EXTT13=
EXTT14=
EXTT15=
EXTT16=
EXTT17=
EXTT18=
EXTT19=
EXTT20=
EXTT21=
EXTT22=
EXTT23=
EXTT24=
EXTT25=
EXTT26=
PLAYORDER=
